# xmcd
# 
# Track frame offsets:
#     150
#     14804
#     29009
#     41379
#     54417
#     66899
#     80187
#     94387
#     108392
#     122889
#     136342
#     149304
#     163727
#     177554
#     193657
#     205964
# 
# Disc length: 2916
# 
# Revision: 0
# Processed by: cddbd v1.5.2PL0 Copyright (c) Steve Scherf et al.
# Submitted via: fre:ac v1.0.31
# 
DISCID=f70b6210
DTITLE=Django Reinhardt - Coleção Folha Lendas do Jazz
DYEAR=2017
DGENRE=Jazz
TTITLE0=Nuages [Django Reinhardt-Jacques Larue]
TTITLE1=Daphné [Django Reinhardt-Stéphane Grappelli]
TTITLE2=Souvenirs [Django Reinhardt-Stéphane Grappelli]
TTITLE3=Honeysuckle Rose [Thomas Wright ''Fats'' Waller-Andy Razaf]
TTITLE4=Please Be Kind [Sammy Cahn-Saul Chaplin]
TTITLE5=H. C. Q. Strut [Django Reinhardt-Stéphane Grappelli]
TTITLE6=Love's Melody (Mélodie au crépuscule) [Django Reinhardt]
TTITLE7=Sweet Georgia Brown [Ben Bernie-Maceo Pinkard-Kenneth Casey]
TTITLE8=The Man I Love [George and Ira Gershwin]
TTITLE9=Belleville [Django Reinhardt]
TTITLE10=Liza (All the Clouds'll Roll Away) [George and Ira Gershwin-Gus Kahn]
TTITLE11=Vous et moi [Robert Bosmans-Etienne Lefebvre]
TTITLE12=Djangology [Django Reinhardt]
TTITLE13=Anniversary Song [Losif Ivanovici-Saul Chaplin-Al Jolson]
TTITLE14=Swing 48 [Django Reinhardt]
TTITLE15=Night and Day [Cole Albert Porter]
EXTD=1994
EXTT0=
EXTT1=
EXTT2=
EXTT3=
EXTT4=
EXTT5=
EXTT6=
EXTT7=
EXTT8=
EXTT9=
EXTT10=
EXTT11=
EXTT12=
EXTT13=
EXTT14=
EXTT15=
PLAYORDER=
